<svg fill="#000000" width="16px" height="16px" viewBox="-0.96 0 10.24 10.24" xmlns="http://www.w3.org/2000/svg">
  <path d="M4.28 1.6q1.04 0 1.7 0.54 0.64 0.54 0.64 1.38 0 0.5 -0.22 0.92 -0.24 0.42 -0.58 0.58v0.04q0.56 0.18 0.9 0.62 0.32 0.44 0.32 1.02 0 0.84 -0.62 1.4 -0.62 0.54 -1.58 0.54H1.28V1.6zm0.08 2.88q0.42 0 0.7 -0.26t0.28 -0.62q0 -0.32 -0.26 -0.52 -0.28 -0.2 -0.72 -0.2h-1.8v1.6zm0.36 2.88q0.44 0 0.74 -0.22 0.3 -0.24 0.3 -0.58 0 -0.38 -0.28 -0.58 -0.3 -0.22 -0.76 -0.22H2.56v1.6z"/>
</svg>
