<svg width="48px" height="48px" viewBox="0 0 3.84 3.84" xmlns="http://www.w3.org/2000/svg" xmlns:xlink="http://www.w3.org/1999/xlink" aria-hidden="true" role="img" class="iconify iconify--emojione" preserveAspectRatio="xMidYMid meet">
  <path cx="32" cy="32" r="30" d="M3.72 1.92A1.8 1.8 0 0 1 1.92 3.72A1.8 1.8 0 0 1 0.12 1.92A1.8 1.8 0 0 1 3.72 1.92z"/>
  <path d="M1.398 1.224c0.138 -0.144 0.318 -0.216 0.534 -0.216 0.288 0 0.504 0.096 0.636 0.288 0.072 0.108 0.114 0.216 0.12 0.324h-0.366c-0.024 -0.084 -0.054 -0.144 -0.09 -0.186 -0.066 -0.078 -0.162 -0.114 -0.288 -0.114q-0.198 0 -0.306 0.162c-0.072 0.108 -0.114 0.258 -0.114 0.45 0 0.198 0.042 0.342 0.12 0.438s0.18 0.144 0.3 0.144q0.189 0 0.288 -0.126c0.036 -0.042 0.066 -0.114 0.09 -0.204h0.36c-0.03 0.192 -0.108 0.342 -0.24 0.462 -0.126 0.12 -0.294 0.18 -0.492 0.18 -0.246 0 -0.444 -0.078 -0.582 -0.24 -0.144 -0.162 -0.21 -0.384 -0.21 -0.666 -0.006 -0.3 0.078 -0.534 0.24 -0.696" fill="#ffffff"/>
</svg>
