<svg fill="#000000" width="36px" height="36px" viewBox="0 0 1.62 1.62" version="1.1" preserveAspectRatio="xMidYMid meet" xmlns="http://www.w3.org/2000/svg" xmlns:xlink="http://www.w3.org/1999/xlink">
  <title>edit-line</title>
  <path class="clr-i-outline clr-i-outline-path-1" d="M1.524 0.374 1.26 0.109a0.093 0.093 0 0 0 -0.131 0L0.192 1.044l-0.085 0.369a0.093 0.093 0 0 0 0.09 0.112 0.09 0.09 0 0 0 0.019 0l0.373 -0.085 0.935 -0.934a0.093 0.093 0 0 0 0 -0.131M0.544 1.359l-0.35 0.073 0.08 -0.343L0.975 0.391l0.27 0.27ZM1.305 0.596l-0.27 -0.27 0.157 -0.156 0.266 0.27Z"/>
  <path x="0" y="0" width="36" height="36" fill-opacity="0" d="M0 0H1.62V1.62H0V0z"/>
</svg>
