<svg width="48px" height="48px" viewBox="0 0 48 48" role="img" xmlns="http://www.w3.org/2000/svg">
  <path d="M23.968 0A24 24 0 0 0 0 24a24 24 0 0 0 24 24 24 24 0 0 0 24 -24A24 24 0 0 0 24 0zm12.18 10.666c0.656 0 1.186 0.532 1.184 1.186v2.964a1.188 1.188 0 0 1 -1.186 1.184H19.554c-1.964 0 -3.556 1.592 -3.556 3.556v11.26c0 0.654 0.532 1.184 1.186 1.184h11.26c1.964 0 3.556 -1.592 3.556 -3.556v-0.592a1.186 1.186 0 0 0 -1.184 -1.186h-8.3a1.18 1.18 0 0 1 -1.184 -1.184v-2.964a1.186 1.186 0 0 1 1.186 -1.184h13.63c0.654 0 1.186 0.53 1.186 1.184v6.816a8 8 0 0 1 -8 8H11.852a1.186 1.186 0 0 1 -1.186 -1.186V19.556a8.888 8.888 0 0 1 8.89 -8.888h16.592z"/>
</svg>
