<svg fill="#000000" width="48px" height="48px" viewBox="0 0 1.44 1.44" xmlns="http://www.w3.org/2000/svg" data-name="Layer 1">
  <path d="M0.72 0.135a0.6 0.6 0 0 0 -0.19 1.169c0.03 0.005 0.041 -0.013 0.041 -0.028 0 -0.014 -0.001 -0.061 -0.001 -0.112 -0.151 0.028 -0.19 -0.037 -0.202 -0.07a0.218 0.218 0 0 0 -0.061 -0.085c-0.021 -0.011 -0.051 -0.039 -0.001 -0.04a0.12 0.12 0 0 1 0.092 0.061 0.128 0.128 0 0 0 0.175 0.049 0.126 0.126 0 0 1 0.038 -0.08c-0.134 -0.015 -0.273 -0.067 -0.273 -0.296a0.234 0.234 0 0 1 0.061 -0.161 0.216 0.216 0 0 1 0.006 -0.159s0.05 -0.016 0.165 0.061a0.566 0.566 0 0 1 0.3 0c0.115 -0.078 0.165 -0.061 0.165 -0.061a0.216 0.216 0 0 1 0.006 0.159 0.232 0.232 0 0 1 0.061 0.161c0 0.23 -0.14 0.281 -0.274 0.296a0.142 0.142 0 0 1 0.04 0.111c0 0.08 -0.001 0.145 -0.001 0.165 0 0.016 0.011 0.034 0.041 0.028A0.6 0.6 0 0 0 0.72 0.135"/>
</svg>
