<svg width="16px" height="16px" viewBox="0 0 0.48 0.48" fill="none" xmlns="http://www.w3.org/2000/svg">
  <path d="M0.06 0.22c0 -0.075 0 -0.113 0.023 -0.137S0.145 0.06 0.22 0.06h0.04c0.075 0 0.113 0 0.137 0.023S0.42 0.145 0.42 0.22v0.04c0 0.075 0 0.113 -0.023 0.137S0.335 0.42 0.26 0.42h-0.04c-0.075 0 -0.113 0 -0.137 -0.023S0.06 0.335 0.06 0.26z" stroke="#33363F" stroke-width="0.04"/>
  <path fill-rule="evenodd" clip-rule="evenodd" d="m0.38 0.272 0 0c-0.008 -0.008 -0.015 -0.015 -0.021 -0.02 -0.006 -0.005 -0.013 -0.01 -0.022 -0.013a0.06 0.06 0 0 0 -0.035 0c-0.009 0.003 -0.015 0.007 -0.022 0.013 -0.006 0.005 -0.013 0.012 -0.02 0.02l-0.001 0.001c-0.006 0.006 -0.01 0.01 -0.013 0.012l0 0 0 0c-0.002 -0.003 -0.004 -0.008 -0.007 -0.016l-0.001 -0.002 0 -0.001c-0.007 -0.017 -0.013 -0.031 -0.019 -0.041 -0.006 -0.011 -0.014 -0.021 -0.026 -0.027a0.06 0.06 0 0 0 -0.032 -0.006c-0.013 0.001 -0.024 0.008 -0.034 0.016 -0.008 0.007 -0.017 0.015 -0.028 0.026V0.26q0 0.015 0 0.028l0.022 -0.022c0.014 -0.014 0.023 -0.023 0.03 -0.029 0.007 -0.006 0.011 -0.007 0.012 -0.007a0.02 0.02 0 0 1 0.011 0.002c0.001 0.001 0.004 0.002 0.009 0.011 0.005 0.008 0.01 0.02 0.018 0.038l0.001 0.002 0 0.001c0.003 0.007 0.006 0.013 0.009 0.018 0.003 0.005 0.007 0.012 0.014 0.016a0.04 0.04 0 0 0 0.028 0.005c0.008 -0.001 0.014 -0.006 0.019 -0.01 0.004 -0.004 0.009 -0.009 0.015 -0.014l0.001 -0.001c0.009 -0.009 0.014 -0.014 0.019 -0.018 0.004 -0.004 0.006 -0.005 0.008 -0.005a0.02 0.02 0 0 1 0.012 0c0.001 0 0.003 0.001 0.008 0.005 0.005 0.004 0.01 0.009 0.019 0.018l0.027 0.027c0.001 -0.014 0.001 -0.032 0.001 -0.055" fill="#33363F"/>
  <path cx="16.5" cy="7.5" r="1.5" fill="#33363F" d="M0.36 0.15A0.03 0.03 0 0 1 0.33 0.18A0.03 0.03 0 0 1 0.3 0.15A0.03 0.03 0 0 1 0.36 0.15z"/>
</svg>
