<svg fill="#000000" width="16px" height="16px" viewBox="-0.06 -0.06 0.48 0.48" xmlns="http://www.w3.org/2000/svg" >
  <path d="M0.064 0.187a0.019 0.019 0 0 1 0.027 0 0.019 0.019 0 0 1 0 0.027l-0.041 0.041a0.039 0.039 0 0 0 0 0.055 0.039 0.039 0 0 0 0.055 0l0.096 -0.096a0.019 0.019 0 0 0 0 -0.027 0.019 0.019 0 0 1 0 -0.027 0.019 0.019 0 0 1 0.027 0 0.058 0.058 0 0 1 0 0.082l-0.096 0.096a0.078 0.078 0 0 1 -0.11 0 0.077 0.077 0 0 1 0 -0.109L0.064 0.187zm0.232 -0.014a0.019 0.019 0 0 1 -0.027 0 0.019 0.019 0 0 1 0 -0.027l0.041 -0.041a0.039 0.039 0 0 0 0 -0.055 0.039 0.039 0 0 0 -0.055 0L0.159 0.146a0.019 0.019 0 0 0 0 0.027 0.019 0.019 0 0 1 0 0.027 0.019 0.019 0 0 1 -0.027 0 0.058 0.058 0 0 1 0 -0.082l0.096 -0.096a0.078 0.078 0 0 1 0.11 0 0.077 0.077 0 0 1 0 0.109L0.296 0.173z"/>
</svg>
