<svg
  version="1.1"
  id="Layer_1"
  xmlns="http://www.w3.org/2000/svg"
  xmlns:xlink="http://www.w3.org/1999/xlink"
  x="0px"
  y="0px"
  viewBox="0 0 32 32"
  style="enable-background:new 0 0 501.333 501.333;"
  xml:space="preserve"
  width="32"
  height="32"
>
  <g>
    <path
      style="fill:#637888;"
      points="97.067,426.667 74.667,404.267 262.4,208 459.733,19.2 482.133,42.667 284.8,230.4 	"
      d="M6.196 27.234 4.766 25.804l11.983 -12.528 12.596 -12.051 1.429 1.498 -12.596 11.983Z"
    />
    <path
      style="fill:#637888;"
      points="429.867,452.267 262.4,230.4 96,101.333 116.267,76.8 284.8,208 455.467,433.067 	"
      d="M27.438 28.868 16.749 14.707 6.128 6.468l1.293 -1.566 10.757 8.374 10.893 14.366Z"
    />
  </g>
  <path
    style="fill:#3A5569;"
    cx="281.6"
    cy="219.733"
    r="109.867"
    d="M24.988 14.026a7.013 7.013 0 0 1 -7.013 7.012 7.013 7.013 0 0 1 -7.012 -7.012 7.012 7.012 0 0 1 14.026 0"
  />
  <path
    style="fill:#F16D6E;"
    cx="86.4"
    cy="414.933"
    r="86.4"
    d="M11.03 26.485A5.515 5.515 0 0 1 5.515 32 5.515 5.515 0 0 1 0 26.485a5.515 5.515 0 0 1 11.03 0"
  />
  <path
    style="fill:#60C3AB;"
    cx="105.6"
    cy="88.533"
    r="66.133"
    d="M10.962 5.651a4.222 4.222 0 0 1 -4.221 4.221 4.222 4.222 0 0 1 -4.221 -4.221 4.221 4.221 0 0 1 8.443 0"
  />
  <path
    style="fill:#80C350;"
    cx="442.667"
    cy="442.667"
    r="58.667"
    d="M32 28.255A3.745 3.745 0 0 1 28.255 32a3.745 3.745 0 0 1 -3.745 -3.745 3.745 3.745 0 0 1 7.49 0"
  />
  <path
    style="fill:#F7B044;"
    cx="454.4"
    cy="46.933"
    r="46.933"
    d="M32 2.996a2.996 2.996 0 0 1 -2.996 2.996 2.996 2.996 0 0 1 -2.996 -2.996 2.996 2.996 0 0 1 5.991 0"
  />
</svg>