<svg width="48px" height="48px" viewBox="0 0 1.44 1.44" fill="none" xmlns="http://www.w3.org/2000/svg">
  <path d="M0.12 0.36a0.12 0.12 0 0 1 0.12 -0.12h0.96a0.12 0.12 0 0 1 0.12 0.12v0.66a0.12 0.12 0 0 1 -0.12 0.12h-0.275l-0.162 0.162a0.06 0.06 0 0 1 -0.085 0L0.515 1.14H0.24a0.12 0.12 0 0 1 -0.12 -0.12zm1.08 0H0.24v0.66h0.3a0.06 0.06 0 0 1 0.042 0.018L0.72 1.175l0.138 -0.138A0.06 0.06 0 0 1 0.9 1.02h0.3zM0.36 0.57a0.06 0.06 0 0 1 0.06 -0.06h0.6a0.06 0.06 0 1 1 0 0.12H0.42a0.06 0.06 0 0 1 -0.06 -0.06m0 0.24a0.06 0.06 0 0 1 0.06 -0.06h0.36a0.06 0.06 0 1 1 0 0.12H0.42a0.06 0.06 0 0 1 -0.06 -0.06" fill="#0D0D0D"/>
</svg>
