<svg width="16px" height="16px" viewBox="0 0 16 16" xmlns="http://www.w3.org/2000/svg">
  <g>
    <path fill="none" d="M0 0h16v16H0z"/>
    <path d="M3.055 11.547C2.369 10.818 2 10 2 8.674c0 -2.333 1.638 -4.425 4.02 -5.459l0.595 0.919c-2.223 1.203 -2.658 2.763 -2.831 3.747 0.358 -0.185 0.827 -0.25 1.286 -0.207 1.203 0.111 2.151 1.099 2.151 2.326a2.333 2.333 0 0 1 -2.333 2.333 2.58 2.58 0 0 1 -1.832 -0.786m6.667 0C9.035 10.818 8.667 10 8.667 8.674c0 -2.333 1.638 -4.425 4.02 -5.459l0.595 0.919c-2.223 1.203 -2.658 2.763 -2.831 3.747 0.358 -0.185 0.827 -0.25 1.286 -0.207 1.203 0.111 2.151 1.099 2.151 2.326a2.333 2.333 0 0 1 -2.333 2.333 2.58 2.58 0 0 1 -1.832 -0.786"/>
  </g>
</svg>
