<svg fill="#000000" width="16px" height="16px" viewBox="0 0 0.48 0.48" xmlns="http://www.w3.org/2000/svg">
  <path d="M0.42 0.04H0.06a0.02 0.02 0 0 0 -0.02 0.02v0.36a0.02 0.02 0 0 0 0.02 0.02h0.36a0.02 0.02 0 0 0 0.02 -0.02V0.06a0.02 0.02 0 0 0 -0.02 -0.02M0.16 0.4H0.08v-0.08h0.08Zm0 -0.12H0.08v-0.08h0.08Zm0 -0.12H0.08V0.08h0.08Zm0.12 0.24h-0.08v-0.08h0.08Zm0 -0.12h-0.08v-0.08h0.08Zm0 -0.12h-0.08V0.08h0.08Zm0.12 0.24h-0.08v-0.08h0.08Zm0 -0.12h-0.08v-0.08h0.08Zm0 -0.12h-0.08V0.08h0.08Z"/>
</svg>
