<svg fill="#000000" width="16px" height="16px" viewBox="0 0 1.28 1.28" version="1.1" xmlns="http://www.w3.org/2000/svg" xmlns:xlink="http://www.w3.org/1999/xlink" xml:space="preserve" xmlns:serif="http://www.serif.com/">
  <path id="Icons" x="-576" y="0" width="1280" height="800" style="fill:none;" d="M-11.52 0H14.08V16H-11.52V0z"/>
  <g id="Icons1" serif:id="Icons">
    <g id="Strike"/>
    <g id="H1"/>
    <g id="H2"/>
    <g id="H3"/>
    <g id="list-ul"/>
    <g id="hamburger-1"/>
    <g id="hamburger-2"/>
    <g id="list-ol"/>
    <g id="list-task">
      <path d="m0.291 0.343 0.149 -0.149 0.052 0.052 -0.202 0.202 -0.127 -0.127 0.053 -0.053zm0.829 0.016H0.561v-0.079h0.56z"/>
      <path d="m0.291 0.343 0.149 -0.149 0.052 0.052 -0.202 0.202 -0.127 -0.127 0.053 -0.053zm0.829 0.016H0.561v-0.079h0.56z"/>
      <path d="m0.291 0.983 0.149 -0.149 0.052 0.052 -0.202 0.202 -0.127 -0.127 0.053 -0.053zm0.829 0.016H0.561v-0.079h0.56z"/>
      <path d="m0.291 0.983 0.149 -0.149 0.052 0.052 -0.202 0.202 -0.127 -0.127 0.053 -0.053zm0.829 0.016H0.561v-0.079h0.56z"/>
      <path d="m0.291 0.663 0.149 -0.149 0.052 0.052 -0.202 0.202 -0.127 -0.127 0.053 -0.053zm0.829 0.016H0.561v-0.079h0.56z"/>
      <path d="m0.291 0.663 0.149 -0.149 0.052 0.052 -0.202 0.202 -0.127 -0.127 0.053 -0.053zm0.829 0.016H0.561v-0.079h0.56z"/>
    </g>
    <g id="trash"/>
    <g id="vertical-menu"/>
    <g id="horizontal-menu"/>
    <g id="sidebar-2"/>
    <g id="Pen"/>
    <g id="Pen1" serif:id="Pen"/>
    <g id="clock"/>
    <g id="external-link"/>
    <g id="hr"/>
    <g id="info"/>
    <g id="warning"/>
    <g id="plus-circle"/>
    <g id="minus-circle"/>
    <g id="vue"/>
    <g id="cog"/>
    <g id="logo"/>
    <g id="radio-check"/>
    <g id="eye-slash"/>
    <g id="eye"/>
    <g id="toggle-off"/>
    <g id="shredder"/>
    <g id="spinner--loading--dots-" serif:id="spinner [loading, dots]"/>
    <g id="react"/>
    <g id="check-selected"/>
    <g id="turn-off"/>
    <g id="code-block"/>
    <g id="user"/>
    <g id="coffee-bean"/>
    <g id="coffee-beans">
      <g id="coffee-bean1" serif:id="coffee-bean"/>
    </g>
    <g id="coffee-bean-filled"/>
    <g id="coffee-beans-filled">
      <g id="coffee-bean2" serif:id="coffee-bean"/>
    </g>
    <g id="clipboard"/>
    <g id="clipboard-paste"/>
    <g id="clipboard-copy"/>
    <g id="Layer1"/>
  </g>
</svg>
