<svg width="16px" height="16px" viewBox="0 0 16 16" xmlns="http://www.w3.org/2000/svg" >
  <path d="M14.25 3H5.125c-0.069 0 -0.125 0.056 -0.125 0.125v0.875c0 0.069 0.056 0.125 0.125 0.125h9.125c0.069 0 0.125 -0.056 0.125 -0.125v-0.875c0 -0.069 -0.056 -0.125 -0.125 -0.125m0 4.438H5.125c-0.069 0 -0.125 0.056 -0.125 0.125v0.875c0 0.069 0.056 0.125 0.125 0.125h9.125c0.069 0 0.125 -0.056 0.125 -0.125v-0.875c0 -0.069 -0.056 -0.125 -0.125 -0.125m0 4.438H5.125c-0.069 0 -0.125 0.056 -0.125 0.125v0.875c0 0.069 0.056 0.125 0.125 0.125h9.125c0.069 0 0.125 -0.056 0.125 -0.125v-0.875c0 -0.069 -0.056 -0.125 -0.125 -0.125M1.625 3.563a0.875 0.875 0 1 0 1.75 0 0.875 0.875 0 1 0 -1.75 0m0 4.438a0.875 0.875 0 1 0 1.75 0 0.875 0.875 0 1 0 -1.75 0m0 4.438a0.875 0.875 0 1 0 1.75 0 0.875 0.875 0 1 0 -1.75 0"/>
</svg>
