<svg width="24" height="24" viewBox="0 0 24 24" xmlns="http://www.w3.org/2000/svg">
  <path d="M12 5.25A6.75 6.75 0 1 0 12 18.75 6.75 6.75 0 0 0 12 5.25Zm0 1.5A5.25 5.25 0 1 1 12 17.25 5.25 5.25 0 0 1 12 6.75ZM11.25 1h1.5v2.5h-1.5V1Zm0 19.5h1.5V23h-1.5v-2.5ZM1 11.25h2.5v1.5H1v-1.5Zm19.5 0H23v1.5h-2.5v-1.5ZM4.22 3.16l1.06-1.06 1.77 1.77-1.06 1.06-1.77-1.77Zm12.73 12.73 1.06-1.06 1.77 1.77-1.06 1.06-1.77-1.77ZM3.16 19.78l-1.06-1.06 1.77-1.77 1.06 1.06-1.77 1.77Zm12.73-12.73-1.06-1.06 1.77-1.77 1.06 1.06-1.77 1.77Z" fill="#000"/>
</svg>
